<?xml version="1.0" encoding="UTF-8" standalone="no"?>
<!DOCTYPE svg PUBLIC "-//W3C//DTD SVG 1.1//EN"
 "http://www.w3.org/Graphics/SVG/1.1/DTD/svg11.dtd">
<!-- Generated by graphviz version 2.43.0 (0)
 -->
<!-- Title: HardwareAdaptation Pages: 1 -->
<svg width="464pt" height="672pt"
 viewBox="0.00 0.00 463.50 671.62" xmlns="http://www.w3.org/2000/svg" xmlns:xlink="http://www.w3.org/1999/xlink">
<g id="graph0" class="graph" transform="scale(1 1) rotate(0) translate(18 653.62)">
<title>HardwareAdaptation</title>
<polygon fill="white" stroke="transparent" points="-18,18 -18,-653.62 445.5,-653.62 445.5,18 -18,18"/>
<text text-anchor="middle" x="125.5" y="-617.23" font-family="Noto Sans CJK SC" font-size="18.00">不同机器人和电机的底层适配</text>
<!-- motion -->
<g id="node1" class="node">
<title>motion</title>
<path fill="#dbeafe" stroke="#2563eb" d="M141,-607.62C141,-607.62 51,-607.62 51,-607.62 45,-607.62 39,-601.62 39,-595.62 39,-595.62 39,-575.62 39,-575.62 39,-569.62 45,-563.62 51,-563.62 51,-563.62 141,-563.62 141,-563.62 147,-563.62 153,-569.62 153,-575.62 153,-575.62 153,-595.62 153,-595.62 153,-601.62 147,-607.62 141,-607.62"/>
<text text-anchor="middle" x="96" y="-589.02" font-family="Noto Sans CJK SC" font-size="12.00">MotionRuntime</text>
<text text-anchor="middle" x="96" y="-576.02" font-family="Noto Sans CJK SC" font-size="12.00">只看到统一关节</text>
</g>
<!-- state -->
<g id="node2" class="node">
<title>state</title>
<path fill="#fef3c7" stroke="#d97706" d="M155,-508.12C155,-508.12 37,-508.12 37,-508.12 31,-508.12 25,-502.12 25,-496.12 25,-496.12 25,-476.12 25,-476.12 25,-470.12 31,-464.12 37,-464.12 37,-464.12 155,-464.12 155,-464.12 161,-464.12 167,-470.12 167,-476.12 167,-476.12 167,-496.12 167,-496.12 167,-502.12 161,-508.12 155,-508.12"/>
<text text-anchor="middle" x="96" y="-489.52" font-family="Noto Sans CJK SC" font-size="12.00">标准关节状态 / 命令</text>
<text text-anchor="middle" x="96" y="-476.52" font-family="Noto Sans CJK SC" font-size="12.00">rad · rad/s · N·m</text>
</g>
<!-- motion&#45;&gt;state -->
<g id="edge1" class="edge">
<title>motion&#45;&gt;state</title>
<path fill="none" stroke="#64748b" stroke-width="1.4" d="M96,-563.54C96,-563.54 96,-515.65 96,-515.65"/>
<polygon fill="#64748b" stroke="#64748b" stroke-width="1.4" points="98.63,-515.65 96,-508.15 93.38,-515.65 98.63,-515.65"/>
</g>
<!-- hardware -->
<g id="node3" class="node">
<title>hardware</title>
<path fill="#dcfce7" stroke="#16a34a" d="M203.5,-398.62C203.5,-398.62 44.5,-398.62 44.5,-398.62 38.5,-398.62 32.5,-392.62 32.5,-386.62 32.5,-386.62 32.5,-366.62 32.5,-366.62 32.5,-360.62 38.5,-354.62 44.5,-354.62 44.5,-354.62 203.5,-354.62 203.5,-354.62 209.5,-354.62 215.5,-360.62 215.5,-366.62 215.5,-366.62 215.5,-386.62 215.5,-386.62 215.5,-392.62 209.5,-398.62 203.5,-398.62"/>
<text text-anchor="middle" x="124" y="-380.02" font-family="Noto Sans CJK SC" font-size="12.00">RobotHardware</text>
<text text-anchor="middle" x="124" y="-367.02" font-family="Noto Sans CJK SC" font-size="12.00">组合整台机器人的电机和总线</text>
</g>
<!-- state&#45;&gt;hardware -->
<g id="edge2" class="edge">
<title>state&#45;&gt;hardware</title>
<path fill="none" stroke="#64748b" stroke-width="1.4" d="M99.75,-463.97C99.75,-463.97 99.75,-406.25 99.75,-406.25"/>
<polygon fill="#64748b" stroke="#64748b" stroke-width="1.4" points="102.38,-406.25 99.75,-398.75 97.13,-406.25 102.38,-406.25"/>
</g>
<!-- transmission -->
<g id="node4" class="node">
<title>transmission</title>
<path fill="#dcfce7" stroke="#16a34a" d="M300.5,-305.62C300.5,-305.62 111.5,-305.62 111.5,-305.62 105.5,-305.62 99.5,-299.62 99.5,-293.62 99.5,-293.62 99.5,-273.62 99.5,-273.62 99.5,-267.62 105.5,-261.62 111.5,-261.62 111.5,-261.62 300.5,-261.62 300.5,-261.62 306.5,-261.62 312.5,-267.62 312.5,-273.62 312.5,-273.62 312.5,-293.62 312.5,-293.62 312.5,-299.62 306.5,-305.62 300.5,-305.62"/>
<text text-anchor="middle" x="206" y="-287.02" font-family="Noto Sans CJK SC" font-size="12.00">JointTransmission</text>
<text text-anchor="middle" x="206" y="-274.02" font-family="Noto Sans CJK SC" font-size="12.00">方向 · 减速比 · 零点 · 单位换算</text>
</g>
<!-- hardware&#45;&gt;transmission -->
<g id="edge3" class="edge">
<title>hardware&#45;&gt;transmission</title>
<path fill="none" stroke="#64748b" stroke-width="1.4" d="M157.5,-354.59C157.5,-354.59 157.5,-313.33 157.5,-313.33"/>
<polygon fill="#64748b" stroke="#64748b" stroke-width="1.4" points="160.13,-313.33 157.5,-305.83 154.88,-313.33 160.13,-313.33"/>
</g>
<!-- unitree -->
<g id="node5" class="node">
<title>unitree</title>
<path fill="white" stroke="#64748b" d="M108,-212.62C108,-212.62 12,-212.62 12,-212.62 6,-212.62 0,-206.62 0,-200.62 0,-200.62 0,-188.62 0,-188.62 0,-182.62 6,-176.62 12,-176.62 12,-176.62 108,-176.62 108,-176.62 114,-176.62 120,-182.62 120,-188.62 120,-188.62 120,-200.62 120,-200.62 120,-206.62 114,-212.62 108,-212.62"/>
<text text-anchor="middle" x="60" y="-191.53" font-family="Noto Sans CJK SC" font-size="12.00">Unitree 电机驱动</text>
</g>
<!-- transmission&#45;&gt;unitree -->
<g id="edge4" class="edge">
<title>transmission&#45;&gt;unitree</title>
<path fill="none" stroke="#64748b" stroke-width="1.4" d="M109.75,-261.62C109.75,-261.62 109.75,-220.28 109.75,-220.28"/>
<polygon fill="#64748b" stroke="#64748b" stroke-width="1.4" points="112.38,-220.28 109.75,-212.78 107.13,-220.28 112.38,-220.28"/>
</g>
<!-- dm -->
<g id="node6" class="node">
<title>dm</title>
<path fill="white" stroke="#64748b" d="M243.5,-212.62C243.5,-212.62 168.5,-212.62 168.5,-212.62 162.5,-212.62 156.5,-206.62 156.5,-200.62 156.5,-200.62 156.5,-188.62 156.5,-188.62 156.5,-182.62 162.5,-176.62 168.5,-176.62 168.5,-176.62 243.5,-176.62 243.5,-176.62 249.5,-176.62 255.5,-182.62 255.5,-188.62 255.5,-188.62 255.5,-200.62 255.5,-200.62 255.5,-206.62 249.5,-212.62 243.5,-212.62"/>
<text text-anchor="middle" x="206" y="-191.53" font-family="Noto Sans CJK SC" font-size="12.00">达妙电机驱动</text>
</g>
<!-- transmission&#45;&gt;dm -->
<g id="edge5" class="edge">
<title>transmission&#45;&gt;dm</title>
<path fill="none" stroke="#64748b" stroke-width="1.4" d="M206,-261.62C206,-261.62 206,-220.28 206,-220.28"/>
<polygon fill="#64748b" stroke="#64748b" stroke-width="1.4" points="208.63,-220.28 206,-212.78 203.38,-220.28 208.63,-220.28"/>
</g>
<!-- future -->
<g id="node7" class="node">
<title>future</title>
<path fill="white" stroke="#64748b" d="M414.5,-212.62C414.5,-212.62 303.5,-212.62 303.5,-212.62 297.5,-212.62 291.5,-206.62 291.5,-200.62 291.5,-200.62 291.5,-188.62 291.5,-188.62 291.5,-182.62 297.5,-176.62 303.5,-176.62 303.5,-176.62 414.5,-176.62 414.5,-176.62 420.5,-176.62 426.5,-182.62 426.5,-188.62 426.5,-188.62 426.5,-200.62 426.5,-200.62 426.5,-206.62 420.5,-212.62 414.5,-212.62"/>
<text text-anchor="middle" x="359" y="-191.53" font-family="Noto Sans CJK SC" font-size="12.00">以后新增的电机驱动</text>
</g>
<!-- transmission&#45;&gt;future -->
<g id="edge6" class="edge">
<title>transmission&#45;&gt;future</title>
<path fill="none" stroke="#64748b" stroke-width="1.4" d="M302,-261.62C302,-261.62 302,-220.28 302,-220.28"/>
<polygon fill="#64748b" stroke="#64748b" stroke-width="1.4" points="304.63,-220.28 302,-212.78 299.38,-220.28 304.63,-220.28"/>
</g>
<!-- serial -->
<g id="node8" class="node">
<title>serial</title>
<path fill="white" stroke="#64748b" d="M100,-127.62C100,-127.62 28,-127.62 28,-127.62 22,-127.62 16,-121.62 16,-115.62 16,-115.62 16,-103.62 16,-103.62 16,-97.62 22,-91.62 28,-91.62 28,-91.62 100,-91.62 100,-91.62 106,-91.62 112,-97.62 112,-103.62 112,-103.62 112,-115.62 112,-115.62 112,-121.62 106,-127.62 100,-127.62"/>
<text text-anchor="middle" x="64" y="-106.53" font-family="Noto Sans CJK SC" font-size="12.00">串口 / RS485</text>
</g>
<!-- unitree&#45;&gt;serial -->
<g id="edge7" class="edge">
<title>unitree&#45;&gt;serial</title>
<path fill="none" stroke="#64748b" stroke-width="1.4" d="M64,-176.6C64,-176.6 64,-135.13 64,-135.13"/>
<polygon fill="#64748b" stroke="#64748b" stroke-width="1.4" points="66.63,-135.13 64,-127.63 61.38,-135.13 66.63,-135.13"/>
</g>
<!-- can -->
<g id="node9" class="node">
<title>can</title>
<path fill="white" stroke="#64748b" d="M242.5,-127.62C242.5,-127.62 161.5,-127.62 161.5,-127.62 155.5,-127.62 149.5,-121.62 149.5,-115.62 149.5,-115.62 149.5,-103.62 149.5,-103.62 149.5,-97.62 155.5,-91.62 161.5,-91.62 161.5,-91.62 242.5,-91.62 242.5,-91.62 248.5,-91.62 254.5,-97.62 254.5,-103.62 254.5,-103.62 254.5,-115.62 254.5,-115.62 254.5,-121.62 248.5,-127.62 242.5,-127.62"/>
<text text-anchor="middle" x="202" y="-106.53" font-family="Noto Sans CJK SC" font-size="12.00">CAN / CAN&#45;FD</text>
</g>
<!-- dm&#45;&gt;can -->
<g id="edge8" class="edge">
<title>dm&#45;&gt;can</title>
<path fill="none" stroke="#64748b" stroke-width="1.4" d="M205.5,-176.6C205.5,-176.6 205.5,-135.13 205.5,-135.13"/>
<polygon fill="#64748b" stroke="#64748b" stroke-width="1.4" points="208.13,-135.13 205.5,-127.63 202.88,-135.13 208.13,-135.13"/>
</g>
<!-- ethercat -->
<g id="node10" class="node">
<title>ethercat</title>
<path fill="white" stroke="#64748b" d="M415.5,-127.62C415.5,-127.62 302.5,-127.62 302.5,-127.62 296.5,-127.62 290.5,-121.62 290.5,-115.62 290.5,-115.62 290.5,-103.62 290.5,-103.62 290.5,-97.62 296.5,-91.62 302.5,-91.62 302.5,-91.62 415.5,-91.62 415.5,-91.62 421.5,-91.62 427.5,-97.62 427.5,-103.62 427.5,-103.62 427.5,-115.62 427.5,-115.62 427.5,-121.62 421.5,-127.62 415.5,-127.62"/>
<text text-anchor="middle" x="359" y="-106.53" font-family="Noto Sans CJK SC" font-size="12.00">EtherCAT / 其他总线</text>
</g>
<!-- future&#45;&gt;ethercat -->
<g id="edge9" class="edge">
<title>future&#45;&gt;ethercat</title>
<path fill="none" stroke="#64748b" stroke-width="1.4" d="M359,-176.6C359,-176.6 359,-135.13 359,-135.13"/>
<polygon fill="#64748b" stroke="#64748b" stroke-width="1.4" points="361.63,-135.13 359,-127.63 356.38,-135.13 361.63,-135.13"/>
</g>
<!-- motors -->
<g id="node11" class="node">
<title>motors</title>
<path fill="#fee2e2" stroke="#dc2626" d="M239.5,-38.6C239.5,-40.72 222.69,-42.44 202,-42.44 181.31,-42.44 164.5,-40.72 164.5,-38.6 164.5,-38.6 164.5,-4.03 164.5,-4.03 164.5,-1.91 181.31,-0.19 202,-0.19 222.69,-0.19 239.5,-1.91 239.5,-4.03 239.5,-4.03 239.5,-38.6 239.5,-38.6"/>
<path fill="none" stroke="#dc2626" d="M239.5,-38.6C239.5,-36.48 222.69,-34.76 202,-34.76 181.31,-34.76 164.5,-36.48 164.5,-38.6"/>
<text text-anchor="middle" x="202" y="-18.21" font-family="Noto Sans CJK SC" font-size="12.00">实际电机</text>
</g>
<!-- serial&#45;&gt;motors -->
<g id="edge10" class="edge">
<title>serial&#45;&gt;motors</title>
<path fill="none" stroke="#64748b" stroke-width="1.4" d="M64,-91.26C64,-65.3 64,-21 64,-21 64,-21 156.79,-21 156.79,-21"/>
<polygon fill="#64748b" stroke="#64748b" stroke-width="1.4" points="156.79,-23.63 164.29,-21 156.79,-18.38 156.79,-23.63"/>
</g>
<!-- can&#45;&gt;motors -->
<g id="edge11" class="edge">
<title>can&#45;&gt;motors</title>
<path fill="none" stroke="#64748b" stroke-width="1.4" d="M202,-91.33C202,-91.33 202,-50.2 202,-50.2"/>
<polygon fill="#64748b" stroke="#64748b" stroke-width="1.4" points="204.63,-50.2 202,-42.7 199.38,-50.2 204.63,-50.2"/>
</g>
<!-- ethercat&#45;&gt;motors -->
<g id="edge12" class="edge">
<title>ethercat&#45;&gt;motors</title>
<path fill="none" stroke="#64748b" stroke-width="1.4" d="M359,-91.26C359,-65.3 359,-21 359,-21 359,-21 247.11,-21 247.11,-21"/>
<polygon fill="#64748b" stroke="#64748b" stroke-width="1.4" points="247.11,-18.38 239.61,-21 247.11,-23.63 247.11,-18.38"/>
</g>
<!-- configs -->
<g id="node12" class="node">
<title>configs</title>
<polygon fill="#f1f5f9" stroke="#64748b" points="373,-514.62 370,-518.62 349,-518.62 346,-514.62 203,-514.62 203,-457.62 373,-457.62 373,-514.62"/>
<text text-anchor="middle" x="288" y="-496.02" font-family="Noto Sans CJK SC" font-size="12.00">RobotModel</text>
<text text-anchor="middle" x="288" y="-483.02" font-family="Noto Sans CJK SC" font-size="12.00">HardwareProfile</text>
<text text-anchor="middle" x="288" y="-470.02" font-family="Noto Sans CJK SC" font-size="12.00">Calibration / MotorProfile</text>
</g>
<!-- configs&#45;&gt;hardware -->
<g id="edge13" class="edge">
<title>configs&#45;&gt;hardware</title>
<path fill="none" stroke="#64748b" stroke-width="1.4" stroke-dasharray="5,2" d="M209.25,-457.36C209.25,-457.36 209.25,-406.13 209.25,-406.13"/>
<polygon fill="#64748b" stroke="#64748b" stroke-width="1.4" points="211.88,-406.13 209.25,-398.63 206.63,-406.13 211.88,-406.13"/>
<text text-anchor="middle" x="215" y="-425.62" font-family="Noto Sans CJK SC" font-size="10.00">选择电机和连接关系</text>
</g>
<!-- configs&#45;&gt;transmission -->
<g id="edge14" class="edge">
<title>configs&#45;&gt;transmission</title>
<path fill="none" stroke="#64748b" stroke-width="1.4" stroke-dasharray="5,2" d="M264,-457.54C264,-457.54 264,-313.33 264,-313.33"/>
<polygon fill="#64748b" stroke="#64748b" stroke-width="1.4" points="266.63,-313.33 264,-305.83 261.38,-313.33 266.63,-313.33"/>
<text text-anchor="middle" x="342" y="-374.12" font-family="Noto Sans CJK SC" font-size="10.00">提供方向、零点和减速比</text>
</g>
</g>
</svg>
