<?xml version="1.0" encoding="UTF-8" standalone="no"?>
<!DOCTYPE svg PUBLIC "-//W3C//DTD SVG 1.1//EN"
 "http://www.w3.org/Graphics/SVG/1.1/DTD/svg11.dtd">
<!-- Generated by graphviz version 2.43.0 (0)
 -->
<!-- Title: Overview Pages: 1 -->
<svg width="1078pt" height="320pt"
 viewBox="0.00 0.00 1078.00 320.31" xmlns="http://www.w3.org/2000/svg" xmlns:xlink="http://www.w3.org/1999/xlink">
<g id="graph0" class="graph" transform="scale(1 1) rotate(0) translate(18 302.31)">
<title>Overview</title>
<polygon fill="white" stroke="transparent" points="-18,18 -18,-302.31 1060,-302.31 1060,18 -18,18"/>
<text text-anchor="middle" x="62.5" y="-265.91" font-family="Noto Sans CJK SC" font-size="18.00">控制系统总览</text>
<!-- inputs -->
<g id="node1" class="node">
<title>inputs</title>
<path fill="#f8fafc" stroke="#64748b" d="M120,-127C120,-127 12,-127 12,-127 6,-127 0,-121 0,-115 0,-115 0,-95 0,-95 0,-89 6,-83 12,-83 12,-83 120,-83 120,-83 126,-83 132,-89 132,-95 132,-95 132,-115 132,-115 132,-121 126,-127 120,-127"/>
<text text-anchor="middle" x="66" y="-108.4" font-family="Noto Sans CJK SC" font-size="12.00">手柄 / 导航 / 上位机</text>
<text text-anchor="middle" x="66" y="-95.4" font-family="Noto Sans CJK SC" font-size="12.00">ROS 2 外围模块</text>
</g>
<!-- motion -->
<g id="node2" class="node">
<title>motion</title>
<path fill="#dbeafe" stroke="#2563eb" stroke-width="2" d="M398,-127C398,-127 281,-127 281,-127 275,-127 269,-121 269,-115 269,-115 269,-95 269,-95 269,-89 275,-83 281,-83 281,-83 398,-83 398,-83 404,-83 410,-89 410,-95 410,-95 410,-115 410,-115 410,-121 404,-127 398,-127"/>
<text text-anchor="middle" x="339.5" y="-108.4" font-family="Noto Sans CJK SC" font-size="12.00">MotionRuntime</text>
<text text-anchor="middle" x="339.5" y="-95.4" font-family="Noto Sans CJK SC" font-size="12.00">运动状态机 + RL 策略</text>
</g>
<!-- inputs&#45;&gt;motion -->
<g id="edge1" class="edge">
<title>inputs&#45;&gt;motion</title>
<path fill="none" stroke="#64748b" stroke-width="1.4" d="M132.21,-105C132.21,-105 261.14,-105 261.14,-105"/>
<polygon fill="#64748b" stroke="#64748b" stroke-width="1.4" points="261.14,-107.63 268.64,-105 261.14,-102.38 261.14,-107.63"/>
<text text-anchor="middle" x="200.5" y="-108" font-family="Noto Sans CJK SC" font-size="10.00">机体命令 / 模式请求</text>
</g>
<!-- robotio -->
<g id="node3" class="node">
<title>robotio</title>
<path fill="#fef3c7" stroke="#d97706" stroke-width="2" d="M656,-127C656,-127 569,-127 569,-127 563,-127 557,-121 557,-115 557,-115 557,-95 557,-95 557,-89 563,-83 569,-83 569,-83 656,-83 656,-83 662,-83 668,-89 668,-95 668,-95 668,-115 668,-115 668,-121 662,-127 656,-127"/>
<text text-anchor="middle" x="612.5" y="-108.4" font-family="Noto Sans CJK SC" font-size="12.00">RobotIO</text>
<text text-anchor="middle" x="612.5" y="-95.4" font-family="Noto Sans CJK SC" font-size="12.00">统一机器人接口</text>
</g>
<!-- motion&#45;&gt;robotio -->
<g id="edge2" class="edge">
<title>motion&#45;&gt;robotio</title>
<path fill="none" stroke="#2563eb" stroke-width="1.4" d="M417.66,-105C417.66,-105 549.27,-105 549.27,-105"/>
<polygon fill="#2563eb" stroke="#2563eb" stroke-width="1.4" points="549.27,-107.63 556.77,-105 549.27,-102.38 549.27,-107.63"/>
<polygon fill="#2563eb" stroke="#2563eb" stroke-width="1.4" points="417.66,-102.38 410.16,-105 417.66,-107.63 417.66,-102.38"/>
<text text-anchor="middle" x="483.5" y="-108" font-family="Noto Sans CJK SC" font-size="10.00" fill="#1d4ed8">关节命令 / 机器人状态</text>
</g>
<!-- real -->
<g id="node4" class="node">
<title>real</title>
<path fill="#dcfce7" stroke="#16a34a" d="M800.5,-240C800.5,-240 737.5,-240 737.5,-240 731.5,-240 725.5,-234 725.5,-228 725.5,-228 725.5,-216 725.5,-216 725.5,-210 731.5,-204 737.5,-204 737.5,-204 800.5,-204 800.5,-204 806.5,-204 812.5,-210 812.5,-216 812.5,-216 812.5,-228 812.5,-228 812.5,-234 806.5,-240 800.5,-240"/>
<text text-anchor="middle" x="769" y="-218.9" font-family="Noto Sans CJK SC" font-size="12.00">真实机器人</text>
</g>
<!-- robotio&#45;&gt;real -->
<g id="edge3" class="edge">
<title>robotio&#45;&gt;real</title>
<path fill="none" stroke="#64748b" stroke-width="1.4" d="M613,-127.01C613,-160.9 613,-222 613,-222 613,-222 717.63,-222 717.63,-222"/>
<polygon fill="#64748b" stroke="#64748b" stroke-width="1.4" points="717.63,-224.63 725.13,-222 717.63,-219.38 717.63,-224.63"/>
</g>
<!-- sim -->
<g id="node5" class="node">
<title>sim</title>
<path fill="#ede9fe" stroke="#7c3aed" d="M807,-172C807,-172 731,-172 731,-172 725,-172 719,-166 719,-160 719,-160 719,-148 719,-148 719,-142 725,-136 731,-136 731,-136 807,-136 807,-136 813,-136 819,-142 819,-148 819,-148 819,-160 819,-160 819,-166 813,-172 807,-172"/>
<text text-anchor="middle" x="769" y="-150.9" font-family="Noto Sans CJK SC" font-size="12.00">MuJoCo 仿真</text>
</g>
<!-- robotio&#45;&gt;sim -->
<g id="edge4" class="edge">
<title>robotio&#45;&gt;sim</title>
<path fill="none" stroke="#64748b" stroke-width="1.4" d="M668.12,-115.5C713.1,-115.5 769,-115.5 769,-115.5 769,-115.5 769,-128.15 769,-128.15"/>
<polygon fill="#64748b" stroke="#64748b" stroke-width="1.4" points="766.38,-128.15 769,-135.65 771.63,-128.15 766.38,-128.15"/>
</g>
<!-- replay -->
<g id="node6" class="node">
<title>replay</title>
<path fill="#f1f5f9" stroke="#64748b" d="M794.5,-104C794.5,-104 743.5,-104 743.5,-104 737.5,-104 731.5,-98 731.5,-92 731.5,-92 731.5,-80 731.5,-80 731.5,-74 737.5,-68 743.5,-68 743.5,-68 794.5,-68 794.5,-68 800.5,-68 806.5,-74 806.5,-80 806.5,-80 806.5,-92 806.5,-92 806.5,-98 800.5,-104 794.5,-104"/>
<text text-anchor="middle" x="769" y="-82.9" font-family="Noto Sans CJK SC" font-size="12.00">日志回放</text>
</g>
<!-- robotio&#45;&gt;replay -->
<g id="edge5" class="edge">
<title>robotio&#45;&gt;replay</title>
<path fill="none" stroke="#64748b" stroke-width="1.4" d="M668.12,-93.5C668.12,-93.5 723.71,-93.5 723.71,-93.5"/>
<polygon fill="#64748b" stroke="#64748b" stroke-width="1.4" points="723.71,-96.13 731.21,-93.5 723.71,-90.88 723.71,-96.13"/>
</g>
<!-- test -->
<g id="node7" class="node">
<title>test</title>
<path fill="#f1f5f9" stroke="#64748b" d="M800.5,-36C800.5,-36 737.5,-36 737.5,-36 731.5,-36 725.5,-30 725.5,-24 725.5,-24 725.5,-12 725.5,-12 725.5,-6 731.5,0 737.5,0 737.5,0 800.5,0 800.5,0 806.5,0 812.5,-6 812.5,-12 812.5,-12 812.5,-24 812.5,-24 812.5,-30 806.5,-36 800.5,-36"/>
<text text-anchor="middle" x="769" y="-14.9" font-family="Noto Sans CJK SC" font-size="12.00">假数据测试</text>
</g>
<!-- robotio&#45;&gt;test -->
<g id="edge6" class="edge">
<title>robotio&#45;&gt;test</title>
<path fill="none" stroke="#64748b" stroke-width="1.4" d="M613,-82.6C613,-56.82 613,-18 613,-18 613,-18 717.63,-18 717.63,-18"/>
<polygon fill="#64748b" stroke="#64748b" stroke-width="1.4" points="717.63,-20.63 725.13,-18 717.63,-15.38 717.63,-20.63"/>
</g>
<!-- hardware -->
<g id="node8" class="node">
<title>hardware</title>
<path fill="#fee2e2" stroke="#dc2626" d="M1023,-252.29C1023,-254.4 1001.71,-256.13 975.5,-256.13 949.29,-256.13 928,-254.4 928,-252.29 928,-252.29 928,-217.71 928,-217.71 928,-215.6 949.29,-213.87 975.5,-213.87 1001.71,-213.87 1023,-215.6 1023,-217.71 1023,-217.71 1023,-252.29 1023,-252.29"/>
<path fill="none" stroke="#dc2626" d="M1023,-252.29C1023,-250.17 1001.71,-248.44 975.5,-248.44 949.29,-248.44 928,-250.17 928,-252.29"/>
<text text-anchor="middle" x="975.5" y="-231.9" font-family="Noto Sans CJK SC" font-size="12.00">Motor + IMU</text>
</g>
<!-- real&#45;&gt;hardware -->
<g id="edge7" class="edge">
<title>real&#45;&gt;hardware</title>
<path fill="none" stroke="#dc2626" stroke-width="1.4" d="M820.04,-226.84C820.04,-226.84 920.19,-226.84 920.19,-226.84"/>
<polygon fill="#dc2626" stroke="#dc2626" stroke-width="1.4" points="920.19,-229.47 927.69,-226.84 920.19,-224.22 920.19,-229.47"/>
<polygon fill="#dc2626" stroke="#dc2626" stroke-width="1.4" points="820.04,-224.22 812.54,-226.84 820.04,-229.47 820.04,-224.22"/>
</g>
<!-- tools -->
<g id="node9" class="node">
<title>tools</title>
<path fill="#f8fafc" stroke="#64748b" stroke-dasharray="5,2" d="M1030,-179C1030,-179 921,-179 921,-179 915,-179 909,-173 909,-167 909,-167 909,-147 909,-147 909,-141 915,-135 921,-135 921,-135 1030,-135 1030,-135 1036,-135 1042,-141 1042,-147 1042,-147 1042,-167 1042,-167 1042,-173 1036,-179 1030,-179"/>
<text text-anchor="middle" x="975.5" y="-160.4" font-family="Noto Sans CJK SC" font-size="12.00">日志 / RViz / UI</text>
<text text-anchor="middle" x="975.5" y="-147.4" font-family="Noto Sans CJK SC" font-size="12.00">姿态镜像 / 影子仿真</text>
</g>
<!-- real&#45;&gt;tools -->
<g id="edge8" class="edge">
<title>real&#45;&gt;tools</title>
<path fill="none" stroke="#64748b" stroke-width="1.4" stroke-dasharray="5,2" d="M812.79,-208.84C857.06,-208.84 919,-208.84 919,-208.84 919,-208.84 919,-186.79 919,-186.79"/>
<polygon fill="#64748b" stroke="#64748b" stroke-width="1.4" points="921.63,-186.79 919,-179.29 916.38,-186.79 921.63,-186.79"/>
<text text-anchor="middle" x="864" y="-205" font-family="Noto Sans CJK SC" font-size="10.00">只读副本</text>
</g>
<!-- sim&#45;&gt;tools -->
<g id="edge9" class="edge">
<title>sim&#45;&gt;tools</title>
<path fill="none" stroke="#64748b" stroke-width="1.4" stroke-dasharray="5,2" d="M819.25,-154C819.25,-154 901.46,-154 901.46,-154"/>
<polygon fill="#64748b" stroke="#64748b" stroke-width="1.4" points="901.46,-156.63 908.96,-154 901.46,-151.38 901.46,-156.63"/>
<text text-anchor="middle" x="864" y="-157" font-family="Noto Sans CJK SC" font-size="10.00">只读副本</text>
</g>
</g>
</svg>
