<?xml version="1.0" encoding="UTF-8" standalone="no"?>
<!DOCTYPE svg PUBLIC "-//W3C//DTD SVG 1.1//EN"
 "http://www.w3.org/Graphics/SVG/1.1/DTD/svg11.dtd">
<!-- Generated by graphviz version 2.43.0 (0)
 -->
<!-- Title: Deployments Pages: 1 -->
<svg width="603pt" height="453pt"
 viewBox="0.00 0.00 603.00 452.62" xmlns="http://www.w3.org/2000/svg" xmlns:xlink="http://www.w3.org/1999/xlink">
<g id="graph0" class="graph" transform="scale(1 1) rotate(0) translate(18 434.62)">
<title>Deployments</title>
<polygon fill="white" stroke="transparent" points="-18,18 -18,-434.62 585,-434.62 585,18 -18,18"/>
<text text-anchor="middle" x="80.5" y="-398.23" font-family="Noto Sans CJK SC" font-size="18.00">两种实机部署方式</text>
<!-- common -->
<g id="node1" class="node">
<title>common</title>
<path fill="#dbeafe" stroke="#2563eb" stroke-width="2" d="M318.5,-388.62C318.5,-388.62 170.5,-388.62 170.5,-388.62 164.5,-388.62 158.5,-382.62 158.5,-376.62 158.5,-376.62 158.5,-356.62 158.5,-356.62 158.5,-350.62 164.5,-344.62 170.5,-344.62 170.5,-344.62 318.5,-344.62 318.5,-344.62 324.5,-344.62 330.5,-350.62 330.5,-356.62 330.5,-356.62 330.5,-376.62 330.5,-376.62 330.5,-382.62 324.5,-388.62 318.5,-388.62"/>
<text text-anchor="middle" x="244.5" y="-370.02" font-family="Noto Sans CJK SC" font-size="12.00">motiond / MotionRuntime</text>
<text text-anchor="middle" x="244.5" y="-357.02" font-family="Noto Sans CJK SC" font-size="12.00">运动状态机 + RL 策略</text>
</g>
<!-- robotd -->
<g id="node2" class="node">
<title>robotd</title>
<path fill="#dcfce7" stroke="#15803d" stroke-width="1.8" d="M213,-274.62C213,-274.62 80,-274.62 80,-274.62 74,-274.62 68,-268.62 68,-262.62 68,-262.62 68,-229.62 68,-229.62 68,-223.62 74,-217.62 80,-217.62 80,-217.62 213,-217.62 213,-217.62 219,-217.62 225,-223.62 225,-229.62 225,-229.62 225,-262.62 225,-262.62 225,-268.62 219,-274.62 213,-274.62"/>
<text text-anchor="middle" x="146.5" y="-256.02" font-family="Noto Sans CJK SC" font-size="12.00">robotd / RobotRuntime</text>
<text text-anchor="middle" x="146.5" y="-243.03" font-family="Noto Sans CJK SC" font-size="12.00">安全检查 · 关节换算</text>
<text text-anchor="middle" x="146.5" y="-230.03" font-family="Noto Sans CJK SC" font-size="12.00">电机和 IMU 通信</text>
</g>
<!-- common&#45;&gt;robotd -->
<g id="edge4" class="edge">
<title>common&#45;&gt;robotd</title>
<path fill="none" stroke="#64748b" stroke-width="1.4" d="M191.75,-337.02C191.75,-337.02 191.75,-282.41 191.75,-282.41"/>
<polygon fill="#64748b" stroke="#64748b" stroke-width="1.4" points="194.38,-282.41 191.75,-274.91 189.13,-282.41 194.38,-282.41"/>
<polygon fill="#64748b" stroke="#64748b" stroke-width="1.4" points="189.13,-337.02 191.75,-344.52 194.38,-337.02 189.13,-337.02"/>
<text text-anchor="middle" x="222.5" y="-312.62" font-family="Noto Sans CJK SC" font-size="10.00">共享内存</text>
<text text-anchor="middle" x="222.5" y="-301.62" font-family="Noto Sans CJK SC" font-size="10.00">StateFrame / CommandFrame</text>
</g>
<!-- gateway -->
<g id="node4" class="node">
<title>gateway</title>
<path fill="white" stroke="#16a34a" d="M412,-268.12C412,-268.12 277,-268.12 277,-268.12 271,-268.12 265,-262.12 265,-256.12 265,-256.12 265,-236.12 265,-236.12 265,-230.12 271,-224.12 277,-224.12 277,-224.12 412,-224.12 412,-224.12 418,-224.12 424,-230.12 424,-236.12 424,-236.12 424,-256.12 424,-256.12 424,-262.12 418,-268.12 412,-268.12"/>
<text text-anchor="middle" x="344.5" y="-249.53" font-family="Noto Sans CJK SC" font-size="12.00">robot_gatewayd</text>
<text text-anchor="middle" x="344.5" y="-236.53" font-family="Noto Sans CJK SC" font-size="12.00">共享内存与网线数据转换</text>
</g>
<!-- common&#45;&gt;gateway -->
<g id="edge5" class="edge">
<title>common&#45;&gt;gateway</title>
<path fill="none" stroke="#64748b" stroke-width="1.4" d="M297.75,-337.02C297.75,-337.02 297.75,-275.99 297.75,-275.99"/>
<polygon fill="#64748b" stroke="#64748b" stroke-width="1.4" points="300.38,-275.99 297.75,-268.49 295.13,-275.99 300.38,-275.99"/>
<polygon fill="#64748b" stroke="#64748b" stroke-width="1.4" points="295.13,-337.02 297.75,-344.52 300.38,-337.02 295.13,-337.02"/>
<text text-anchor="middle" x="410.5" y="-312.62" font-family="Noto Sans CJK SC" font-size="10.00">共享内存</text>
<text text-anchor="middle" x="410.5" y="-301.62" font-family="Noto Sans CJK SC" font-size="10.00">StateFrame / CommandFrame</text>
</g>
<!-- hw_a -->
<g id="node3" class="node">
<title>hw_a</title>
<path fill="#fee2e2" stroke="#dc2626" d="M95,-147.41C95,-149.53 73.71,-151.25 47.5,-151.25 21.29,-151.25 0,-149.53 0,-147.41 0,-147.41 0,-112.84 0,-112.84 0,-110.72 21.29,-109 47.5,-109 73.71,-109 95,-110.72 95,-112.84 95,-112.84 95,-147.41 95,-147.41"/>
<path fill="none" stroke="#dc2626" d="M95,-147.41C95,-145.29 73.71,-143.57 47.5,-143.57 21.29,-143.57 0,-145.29 0,-147.41"/>
<text text-anchor="middle" x="47.5" y="-127.03" font-family="Noto Sans CJK SC" font-size="12.00">Motor + IMU</text>
</g>
<!-- robotd&#45;&gt;hw_a -->
<g id="edge1" class="edge">
<title>robotd&#45;&gt;hw_a</title>
<path fill="none" stroke="#64748b" stroke-width="1.4" d="M81.5,-209.95C81.5,-209.95 81.5,-158.33 81.5,-158.33"/>
<polygon fill="#64748b" stroke="#64748b" stroke-width="1.4" points="84.13,-158.33 81.5,-150.83 78.88,-158.33 84.13,-158.33"/>
<polygon fill="#64748b" stroke="#64748b" stroke-width="1.4" points="78.88,-209.95 81.5,-217.45 84.13,-209.95 78.88,-209.95"/>
<text text-anchor="middle" x="72" y="-185.62" font-family="Noto Sans CJK SC" font-size="10.00">串口 / CAN</text>
</g>
<!-- safe_a -->
<g id="node7" class="node">
<title>safe_a</title>
<polygon fill="#fff7ed" stroke="#ea580c" points="220.5,-39.31 86.5,-39.31 86.5,-3.31 226.5,-3.31 226.5,-33.31 220.5,-39.31"/>
<polyline fill="none" stroke="#ea580c" points="220.5,-39.31 220.5,-33.31 "/>
<polyline fill="none" stroke="#ea580c" points="226.5,-33.31 220.5,-33.31 "/>
<text text-anchor="middle" x="156.5" y="-18.21" font-family="Noto Sans CJK SC" font-size="12.00">最终安全权在 robotd</text>
</g>
<!-- robotd&#45;&gt;safe_a -->
<g id="edge6" class="edge">
<title>robotd&#45;&gt;safe_a</title>
<path fill="none" stroke="#64748b" stroke-width="1.4" stroke-dasharray="5,2" d="M160,-217.19C160,-170.11 160,-78.28 160,-39.39"/>
</g>
<!-- h7 -->
<g id="node5" class="node">
<title>h7</title>
<path fill="#dcfce7" stroke="#15803d" stroke-width="1.8" d="M427,-158.62C427,-158.62 262,-158.62 262,-158.62 256,-158.62 250,-152.62 250,-146.62 250,-146.62 250,-113.62 250,-113.62 250,-107.62 256,-101.62 262,-101.62 262,-101.62 427,-101.62 427,-101.62 433,-101.62 439,-107.62 439,-113.62 439,-113.62 439,-146.62 439,-146.62 439,-152.62 433,-158.62 427,-158.62"/>
<text text-anchor="middle" x="344.5" y="-140.03" font-family="Noto Sans CJK SC" font-size="12.00">STM32H7 / RobotRuntime</text>
<text text-anchor="middle" x="344.5" y="-127.03" font-family="Noto Sans CJK SC" font-size="12.00">最终安全检查 · 固定周期执行</text>
<text text-anchor="middle" x="344.5" y="-114.03" font-family="Noto Sans CJK SC" font-size="12.00">关节换算 · 电机和 IMU 通信</text>
</g>
<!-- gateway&#45;&gt;h7 -->
<g id="edge2" class="edge">
<title>gateway&#45;&gt;h7</title>
<path fill="none" stroke="#64748b" stroke-width="1.4" d="M344.5,-216.53C344.5,-216.53 344.5,-166.23 344.5,-166.23"/>
<polygon fill="#64748b" stroke="#64748b" stroke-width="1.4" points="347.13,-166.23 344.5,-158.73 341.88,-166.23 347.13,-166.23"/>
<polygon fill="#64748b" stroke="#64748b" stroke-width="1.4" points="341.88,-216.53 344.5,-224.03 347.13,-216.53 341.88,-216.53"/>
<text text-anchor="middle" x="354.5" y="-185.62" font-family="Noto Sans CJK SC" font-size="10.00">网线</text>
</g>
<!-- hw_b -->
<g id="node6" class="node">
<title>hw_b</title>
<path fill="#fee2e2" stroke="#dc2626" d="M372,-38.6C372,-40.72 350.71,-42.44 324.5,-42.44 298.29,-42.44 277,-40.72 277,-38.6 277,-38.6 277,-4.03 277,-4.03 277,-1.91 298.29,-0.19 324.5,-0.19 350.71,-0.19 372,-1.91 372,-4.03 372,-4.03 372,-38.6 372,-38.6"/>
<path fill="none" stroke="#dc2626" d="M372,-38.6C372,-36.48 350.71,-34.76 324.5,-34.76 298.29,-34.76 277,-36.48 277,-38.6"/>
<text text-anchor="middle" x="324.5" y="-18.21" font-family="Noto Sans CJK SC" font-size="12.00">Motor + IMU</text>
</g>
<!-- h7&#45;&gt;hw_b -->
<g id="edge3" class="edge">
<title>h7&#45;&gt;hw_b</title>
<path fill="none" stroke="#64748b" stroke-width="1.4" d="M324.5,-94.04C324.5,-94.04 324.5,-49.99 324.5,-49.99"/>
<polygon fill="#64748b" stroke="#64748b" stroke-width="1.4" points="327.13,-49.99 324.5,-42.49 321.88,-49.99 327.13,-49.99"/>
<polygon fill="#64748b" stroke="#64748b" stroke-width="1.4" points="321.88,-94.04 324.5,-101.54 327.13,-94.04 321.88,-94.04"/>
<text text-anchor="middle" x="364.5" y="-69.62" font-family="Noto Sans CJK SC" font-size="10.00">CAN / RS485 / SPI</text>
</g>
<!-- safe_b -->
<g id="node8" class="node">
<title>safe_b</title>
<polygon fill="#fff7ed" stroke="#ea580c" points="561,-39.31 412,-39.31 412,-3.31 567,-3.31 567,-33.31 561,-39.31"/>
<polyline fill="none" stroke="#ea580c" points="561,-39.31 561,-33.31 "/>
<polyline fill="none" stroke="#ea580c" points="567,-33.31 561,-33.31 "/>
<text text-anchor="middle" x="489.5" y="-18.21" font-family="Noto Sans CJK SC" font-size="12.00">最终安全权在 STM32H7</text>
</g>
<!-- h7&#45;&gt;safe_b -->
<g id="edge7" class="edge">
<title>h7&#45;&gt;safe_b</title>
<path fill="none" stroke="#64748b" stroke-width="1.4" stroke-dasharray="5,2" d="M425.5,-101.54C425.5,-81.89 425.5,-56.4 425.5,-39.48"/>
</g>
</g>
</svg>
